<svg width="24" height="24" viewBox="0 0 24 24" fill="none" xmlns="http://www.w3.org/2000/svg">
<path d="M17.0674 3.26367L17.0674 2.26367H17.0674V3.26367ZM17.0674 18.0566V19.0566H17.0674L17.0674 18.0566ZM7.66211 18.0566V17.0566C7.42949 17.0566 7.20415 17.1377 7.02487 17.286L7.66211 18.0566ZM4.41895 20.7383H3.41895C3.41895 21.1256 3.64261 21.4781 3.99306 21.6431C4.3435 21.808 4.75768 21.7558 5.05618 21.509L4.41895 20.7383ZM4.41895 17.165H5.41895C5.41895 16.8637 5.28308 16.5785 5.04912 16.3886L4.41895 17.165ZM6.93359 3.26367V2.26367H6.93357L6.93359 3.26367ZM17.0674 3.26367L17.0674 4.26367C18.721 4.26372 20.0615 5.6042 20.0615 7.25781H21.0615H22.0615C22.0615 4.49957 19.8256 2.26375 17.0674 2.26367L17.0674 3.26367ZM21.0615 7.25781H20.0615V14.0625H21.0615H22.0615V7.25781H21.0615ZM21.0615 14.0625H20.0615C20.0615 15.7161 18.721 17.0566 17.0674 17.0566L17.0674 18.0566L17.0674 19.0566C19.8256 19.0566 22.0615 16.8207 22.0615 14.0625H21.0615ZM17.0674 18.0566V17.0566H7.66211V18.0566V19.0566H17.0674V18.0566ZM7.66211 18.0566L7.02487 17.286L3.78171 19.9676L4.41895 20.7383L5.05618 21.509L8.29934 18.8273L7.66211 18.0566ZM4.41895 20.7383H5.41895V17.165H4.41895H3.41895V20.7383H4.41895ZM4.41895 17.165L5.04912 16.3886C4.37038 15.8377 3.93945 15.0007 3.93945 14.0625H2.93945H1.93945C1.93945 15.6296 2.66288 17.0277 3.78877 17.9415L4.41895 17.165ZM2.93945 14.0625H3.93945V7.25781H2.93945H1.93945V14.0625H2.93945ZM2.93945 7.25781H3.93945C3.93945 5.6042 5.27994 4.26372 6.93362 4.26367L6.93359 3.26367L6.93357 2.26367C4.17542 2.26375 1.93945 4.49957 1.93945 7.25781H2.93945ZM6.93359 3.26367V4.26367H17.0674V3.26367V2.26367H6.93359V3.26367Z" fill="#228BE6"/>
<path d="M9.13379 9.29883C9.83353 9.29883 10.4014 9.86667 10.4014 10.5664C10.4012 11.266 9.83346 11.833 9.13379 11.833C8.43421 11.8329 7.86731 11.266 7.86719 10.5664C7.86719 9.86673 8.43414 9.29893 9.13379 9.29883ZM14.8662 9.29883C15.566 9.29883 16.1338 9.86667 16.1338 10.5664C16.1337 11.266 15.5659 11.833 14.8662 11.833C14.1666 11.8329 13.5997 11.266 13.5996 10.5664C13.5996 9.86673 14.1666 9.29893 14.8662 9.29883Z" fill="#228BE6"/>
</svg>
