<svg width="24" height="24" viewBox="0 0 24 24" fill="none" xmlns="http://www.w3.org/2000/svg">
<path fill-rule="evenodd" clip-rule="evenodd" d="M17.9998 6C17.7346 6 17.4802 6.10536 17.2927 6.29289C17.1051 6.48043 16.9998 6.73478 16.9998 7C16.9998 7.26522 17.1051 7.51957 17.2927 7.70711C17.4802 7.89464 17.7346 8 17.9998 8C18.265 8 18.5194 7.89464 18.7069 7.70711C18.8944 7.51957 18.9998 7.26522 18.9998 7C18.9998 6.73478 18.8944 6.48043 18.7069 6.29289C18.5194 6.10536 18.265 6 17.9998 6ZM15.8785 4.87868C16.4411 4.31607 17.2041 4 17.9998 4C18.7954 4 19.5585 4.31607 20.1211 4.87868C20.6837 5.44129 20.9998 6.20435 20.9998 7C20.9998 7.79565 20.6837 8.55871 20.1211 9.12132C19.5585 9.68393 18.7954 10 17.9998 10C17.2041 10 16.4411 9.68393 15.8785 9.12132C15.3159 8.55871 14.9998 7.79565 14.9998 7C14.9998 6.20435 15.3159 5.44129 15.8785 4.87868ZM15.5143 11.1425C15.9879 11.4267 16.1414 12.0409 15.8573 12.5145C14.4138 14.9203 13.4631 17.3027 12.9862 20.1644C12.915 20.5916 12.5768 20.9245 12.1485 20.9889C11.7202 21.0533 11.2991 20.8346 11.1054 20.4472C9.89588 18.0283 8.77501 16.8875 7.75735 16.4029C6.77563 15.9354 5.69675 15.9884 4.31601 16.4487C3.79207 16.6233 3.22575 16.3402 3.0511 15.8162C2.87645 15.2923 3.15961 14.726 3.68356 14.5513C5.30282 14.0116 6.97394 13.8146 8.61722 14.5971C9.69235 15.1091 10.6654 15.9986 11.5781 17.304C12.1658 15.229 13.0229 13.3512 14.1423 11.4855C14.4264 11.0119 15.0407 10.8584 15.5143 11.1425Z" fill="#868E96"/>
</svg>
